# Blender 3.4.0
# www.blender.org
mtllib error.mtl
o Cube
v -0.500000 -0.500000 0.500000
v -0.500000 0.500000 0.500000
v -0.500000 -0.500000 -0.500000
v -0.500000 0.500000 -0.500000
v 0.500000 -0.500000 0.500000
v 0.500000 0.500000 0.500000
v 0.500000 -0.500000 -0.500000
v 0.500000 0.500000 -0.500000
vn -1.0000 -0.0000 -0.0000
vn -0.0000 -0.0000 -1.0000
vn 1.0000 -0.0000 -0.0000
vn -0.0000 -0.0000 1.0000
vn -0.0000 -1.0000 -0.0000
vn -0.0000 1.0000 -0.0000
vt -0.000213 -2.004044
vt -0.000213 2.001796
vt -1.000618 1.000336
vt 1.000192 -2.004044
vt 1.000192 2.001796
vt 2.000598 1.000336
vt -0.000213 -1.002584
vt -1.000618 -0.001124
vt 1.000192 -1.002584
vt 2.000598 -0.001124
vt -0.000213 1.000336
vt 1.000192 1.000336
vt -0.000213 -0.001124
vt 1.000192 -0.001124
s 0
usemtl Material.001
f 1/1/1 2/4/1 4/9/1 3/7/1
f 3/7/2 4/9/2 8/14/2 7/13/2
f 7/13/3 8/14/3 6/12/3 5/11/3
f 5/11/4 6/12/4 2/5/4 1/2/4
f 3/8/5 7/13/5 5/11/5 1/3/5
f 8/14/6 4/10/6 2/6/6 6/12/6
